# xmcd
#
# Track frame offsets:
# 150
# 13555
# 29268
# 44525
# 62928
# 80714
# 97409
# 115616
# 131835
# 147723
# 163009
#
# Disc length: 2404 seconds
#
# Revision: 2
# Processed by: cddbd v1.5.1PL0 Copyright (c) Steve Scherf et al.
# Submitted via: CedeCatalogueitor 2.6.0.6 http://personales.ya.com/cdcatalogueitor
#
DISCID=a309620b
DTITLE=Abigail - Alma Enamorada
DYEAR=2000
DGENRE=Pop
TTITLE0=Besame El Alma
TTITLE1=Si Hay Sueños, Hay Caminos
TTITLE2=Pideme Un Beso
TTITLE3=Lindo
TTITLE4=
TTITLE5=
TTITLE6=
TTITLE7=
TTITLE8=
TTITLE9=
TTITLE10=
EXTD=
EXTT0=
EXTT1=
EXTT2=
EXTT3=
EXTT4=
EXTT5=
EXTT6=
EXTT7=
EXTT8=
EXTT9=
EXTT10=
PLAYORDER=
